{
  "asset": {
    "version": "2.0",
    "generator": "pbrt_to_gltf.py"
  },
  "scene": 0,
  "scenes": [
    {
      "name": "teapot",
      "nodes": [
        4
      ]
    }
  ],
  "nodes": [
    {
      "name": "00_Floor",
      "mesh": 0
    },
    {
      "name": "01_Material",
      "mesh": 1
    },
    {
      "name": "02_Material",
      "mesh": 2
    },
    {
      "name": "Camera",
      "camera": 0,
      "matrix": [
        0.005509491603289584,
        -1.0781956843978493e-05,
        -0.9999845492489068,
        0.0,
        -0.34214380315592907,
        0.9396453204008237,
        -0.0018910297939854772,
        0.0,
        0.9396317278736928,
        0.34214927784867927,
        0.005193347289629015,
        0.0,
        23.895058192628504,
        11.220711571263603,
        0.04007747618814517,
        1.0
      ]
    },
    {
      "name": "teapot_root",
      "translation": [
        0.0,
        0.0,
        0.0
      ],
      "children": [
        0,
        1,
        2,
        3
      ]
    }
  ],
  "meshes": [
    {
      "name": "00_Floor",
      "primitives": [
        {
          "attributes": {
            "POSITION": 0,
            "NORMAL": 1,
            "TEXCOORD_0": 2
          },
          "indices": 3,
          "material": 1,
          "mode": 4
        }
      ]
    },
    {
      "name": "01_Material",
      "primitives": [
        {
          "attributes": {
            "POSITION": 4,
            "NORMAL": 5,
            "TEXCOORD_0": 6
          },
          "indices": 7,
          "material": 0,
          "mode": 4
        }
      ]
    },
    {
      "name": "02_Material",
      "primitives": [
        {
          "attributes": {
            "POSITION": 8,
            "NORMAL": 9,
            "TEXCOORD_0": 10
          },
          "indices": 11,
          "material": 0,
          "mode": 4
        }
      ]
    }
  ],
  "materials": [
    {
      "name": "Material",
      "doubleSided": false,
      "pbrMetallicRoughness": {
        "baseColorFactor": [
          0.9,
          0.9,
          0.9,
          1.0
        ],
        "metallicFactor": 0.0,
        "roughnessFactor": 1.0
      },
      "extras": {
        "pbrt": {
          "type": "coateddiffuse",
          "reflectance_rgb": [
            0.9,
            0.9,
            0.9
          ]
        }
      }
    },
    {
      "name": "Floor",
      "doubleSided": false,
      "pbrMetallicRoughness": {
        "baseColorFactor": [
          1.0,
          1.0,
          1.0,
          1.0
        ],
        "metallicFactor": 0.0,
        "roughnessFactor": 1.0,
        "baseColorTexture": {
          "index": 0
        }
      },
      "extras": {
        "pbrt": {
          "type": "diffuse",
          "reflectance_rgb": [
            0.525,
            0.51,
            0.465
          ],
          "reflectance_texture": "Texture01",
          "reflectance_texture_type": "checkerboard"
        }
      }
    }
  ],
  "buffers": [
    {
      "uri": "teapot.bin",
      "byteLength": 2774604
    }
  ],
  "bufferViews": [
    {
      "buffer": 0,
      "byteOffset": 0,
      "byteLength": 1406
    },
    {
      "buffer": 0,
      "byteOffset": 1408,
      "byteLength": 48,
      "target": 34962
    },
    {
      "buffer": 0,
      "byteOffset": 1456,
      "byteLength": 48,
      "target": 34962
    },
    {
      "buffer": 0,
      "byteOffset": 1504,
      "byteLength": 32,
      "target": 34962
    },
    {
      "buffer": 0,
      "byteOffset": 1536,
      "byteLength": 12,
      "target": 34963
    },
    {
      "buffer": 0,
      "byteOffset": 1548,
      "byteLength": 469032,
      "target": 34962
    },
    {
      "buffer": 0,
      "byteOffset": 470580,
      "byteLength": 469032,
      "target": 34962
    },
    {
      "buffer": 0,
      "byteOffset": 939612,
      "byteLength": 312688,
      "target": 34962
    },
    {
      "buffer": 0,
      "byteOffset": 1252300,
      "byteLength": 469056,
      "target": 34963
    },
    {
      "buffer": 0,
      "byteOffset": 1721356,
      "byteLength": 287256,
      "target": 34962
    },
    {
      "buffer": 0,
      "byteOffset": 2008612,
      "byteLength": 287256,
      "target": 34962
    },
    {
      "buffer": 0,
      "byteOffset": 2295868,
      "byteLength": 191504,
      "target": 34962
    },
    {
      "buffer": 0,
      "byteOffset": 2487372,
      "byteLength": 287232,
      "target": 34963
    }
  ],
  "accessors": [
    {
      "bufferView": 1,
      "componentType": 5126,
      "count": 4,
      "type": "VEC3",
      "min": [
        -79.9533,
        -9.88498e-06,
        -79.9533
      ],
      "max": [
        79.9533,
        9.88498e-06,
        79.9533
      ]
    },
    {
      "bufferView": 2,
      "componentType": 5126,
      "count": 4,
      "type": "VEC3"
    },
    {
      "bufferView": 3,
      "componentType": 5126,
      "count": 4,
      "type": "VEC2"
    },
    {
      "bufferView": 4,
      "componentType": 5123,
      "count": 6,
      "type": "SCALAR"
    },
    {
      "bufferView": 5,
      "componentType": 5126,
      "count": 39086,
      "type": "VEC3",
      "min": [
        -3.0831298828125,
        0.031957998871803284,
        -4.82663106918335
      ],
      "max": [
        3.0831298828125,
        4.740152835845947,
        4.577331066131592
      ]
    },
    {
      "bufferView": 6,
      "componentType": 5126,
      "count": 39086,
      "type": "VEC3"
    },
    {
      "bufferView": 7,
      "componentType": 5126,
      "count": 39086,
      "type": "VEC2"
    },
    {
      "bufferView": 8,
      "componentType": 5123,
      "count": 234528,
      "type": "SCALAR"
    },
    {
      "bufferView": 9,
      "componentType": 5126,
      "count": 23938,
      "type": "VEC3",
      "min": [
        -1.9239720106124878,
        4.583067893981934,
        -1.9239710569381714
      ],
      "max": [
        1.9239710569381714,
        6.165119171142578,
        1.9239710569381714
      ]
    },
    {
      "bufferView": 10,
      "componentType": 5126,
      "count": 23938,
      "type": "VEC3"
    },
    {
      "bufferView": 11,
      "componentType": 5126,
      "count": 23938,
      "type": "VEC2"
    },
    {
      "bufferView": 12,
      "componentType": 5123,
      "count": 143616,
      "type": "SCALAR"
    }
  ],
  "extras": {
    "sourceFormat": "pbrt-v4",
    "sceneId": "teapot"
  },
  "images": [
    {
      "name": "Texture01",
      "bufferView": 0,
      "mimeType": "image/png"
    }
  ],
  "textures": [
    {
      "source": 0,
      "sampler": 0
    }
  ],
  "samplers": [
    {
      "magFilter": 9728,
      "minFilter": 9728,
      "wrapS": 10497,
      "wrapT": 10497
    }
  ],
  "cameras": [
    {
      "name": "Camera",
      "type": "perspective",
      "perspective": {
        "yfov": 0.35106062210755523,
        "znear": 0.01
      }
    }
  ]
}
