{
  "asset": {
    "version": "2.0",
    "generator": "pbrt_to_gltf.py"
  },
  "scene": 0,
  "scenes": [
    {
      "name": "cornell-caustic",
      "nodes": [
        11
      ]
    }
  ],
  "nodes": [
    {
      "name": "00_Floor",
      "mesh": 0
    },
    {
      "name": "01_Ceiling",
      "mesh": 1
    },
    {
      "name": "02_BackWall",
      "mesh": 2
    },
    {
      "name": "03_RightWall",
      "mesh": 3
    },
    {
      "name": "04_LeftWall",
      "mesh": 4
    },
    {
      "name": "05_ShortBox",
      "mesh": 5
    },
    {
      "name": "06_TallBox",
      "mesh": 6
    },
    {
      "name": "07_Light",
      "mesh": 7,
      "extras": {
        "pbrt": {
          "areaLightSource": {
            "type": "diffuse",
            "rgb_L": [
              541126.75,
              381971.8,
              127323.94
            ],
            "twosided": false
          }
        }
      }
    },
    {
      "name": "08_Water",
      "mesh": 8,
      "matrix": [
        1.0,
        0.0,
        0.0,
        0.0,
        0.0,
        1.5,
        0.0,
        0.0,
        0.0,
        0.0,
        1.0,
        0.0,
        0.0,
        0.0,
        0.0,
        1.0
      ]
    },
    {
      "name": "09_Water",
      "mesh": 9,
      "matrix": [
        1.0,
        0.0,
        0.0,
        0.0,
        0.0,
        1.5,
        0.0,
        0.0,
        0.0,
        0.0,
        1.0,
        0.0,
        0.0,
        0.0,
        0.0,
        1.0
      ]
    },
    {
      "name": "Camera",
      "camera": 0,
      "matrix": [
        0.9999999999999771,
        0.0,
        1.5099599999999657e-07,
        0.0,
        0.0,
        1.0,
        0.0,
        0.0,
        -1.5099599999999657e-07,
        0.0,
        0.9999999999999771,
        0.0,
        -1.0326298211529766e-06,
        0.990944,
        6.838789999999844,
        1.0
      ]
    },
    {
      "name": "cornell-caustic_root",
      "translation": [
        0.0,
        0.0,
        0.0
      ],
      "children": [
        0,
        1,
        2,
        3,
        4,
        5,
        6,
        7,
        8,
        9,
        10
      ]
    }
  ],
  "meshes": [
    {
      "name": "00_Floor",
      "primitives": [
        {
          "attributes": {
            "POSITION": 0,
            "NORMAL": 1,
            "TEXCOORD_0": 2
          },
          "indices": 3,
          "material": 2,
          "mode": 4
        }
      ]
    },
    {
      "name": "01_Ceiling",
      "primitives": [
        {
          "attributes": {
            "POSITION": 4,
            "NORMAL": 5,
            "TEXCOORD_0": 6
          },
          "indices": 7,
          "material": 3,
          "mode": 4
        }
      ]
    },
    {
      "name": "02_BackWall",
      "primitives": [
        {
          "attributes": {
            "POSITION": 8,
            "NORMAL": 9,
            "TEXCOORD_0": 10
          },
          "indices": 11,
          "material": 4,
          "mode": 4
        }
      ]
    },
    {
      "name": "03_RightWall",
      "primitives": [
        {
          "attributes": {
            "POSITION": 12,
            "NORMAL": 13,
            "TEXCOORD_0": 14
          },
          "indices": 15,
          "material": 1,
          "mode": 4
        }
      ]
    },
    {
      "name": "04_LeftWall",
      "primitives": [
        {
          "attributes": {
            "POSITION": 16,
            "NORMAL": 17,
            "TEXCOORD_0": 18
          },
          "indices": 19,
          "material": 0,
          "mode": 4
        }
      ]
    },
    {
      "name": "05_ShortBox",
      "primitives": [
        {
          "attributes": {
            "POSITION": 20,
            "NORMAL": 21,
            "TEXCOORD_0": 22
          },
          "indices": 23,
          "material": 5,
          "mode": 4
        }
      ]
    },
    {
      "name": "06_TallBox",
      "primitives": [
        {
          "attributes": {
            "POSITION": 24,
            "NORMAL": 25,
            "TEXCOORD_0": 26
          },
          "indices": 27,
          "material": 6,
          "mode": 4
        }
      ]
    },
    {
      "name": "07_Light",
      "primitives": [
        {
          "attributes": {
            "POSITION": 28,
            "NORMAL": 29,
            "TEXCOORD_0": 30
          },
          "indices": 31,
          "material": 7,
          "mode": 4
        }
      ]
    },
    {
      "name": "08_Water",
      "primitives": [
        {
          "attributes": {
            "POSITION": 32,
            "NORMAL": 33,
            "TEXCOORD_0": 34
          },
          "indices": 35,
          "material": 8,
          "mode": 4
        }
      ]
    },
    {
      "name": "09_Water",
      "primitives": [
        {
          "attributes": {
            "POSITION": 36,
            "TEXCOORD_0": 37
          },
          "indices": 38,
          "material": 8,
          "mode": 4
        }
      ]
    }
  ],
  "materials": [
    {
      "name": "LeftWall",
      "doubleSided": true,
      "pbrMetallicRoughness": {
        "baseColorFactor": [
          0.63,
          0.065,
          0.05,
          1.0
        ],
        "metallicFactor": 0.0,
        "roughnessFactor": 1.0
      },
      "extras": {
        "pbrt": {
          "type": "diffuse",
          "reflectance_rgb": [
            0.63,
            0.065,
            0.05
          ]
        }
      }
    },
    {
      "name": "RightWall",
      "doubleSided": true,
      "pbrMetallicRoughness": {
        "baseColorFactor": [
          0.14,
          0.45,
          0.091,
          1.0
        ],
        "metallicFactor": 0.0,
        "roughnessFactor": 1.0
      },
      "extras": {
        "pbrt": {
          "type": "diffuse",
          "reflectance_rgb": [
            0.14,
            0.45,
            0.091
          ]
        }
      }
    },
    {
      "name": "Floor",
      "doubleSided": true,
      "pbrMetallicRoughness": {
        "baseColorFactor": [
          0.725,
          0.71,
          0.68,
          1.0
        ],
        "metallicFactor": 0.0,
        "roughnessFactor": 1.0
      },
      "extras": {
        "pbrt": {
          "type": "diffuse",
          "reflectance_rgb": [
            0.725,
            0.71,
            0.68
          ]
        }
      }
    },
    {
      "name": "Ceiling",
      "doubleSided": true,
      "pbrMetallicRoughness": {
        "baseColorFactor": [
          0.725,
          0.71,
          0.68,
          1.0
        ],
        "metallicFactor": 0.0,
        "roughnessFactor": 1.0
      },
      "extras": {
        "pbrt": {
          "type": "diffuse",
          "reflectance_rgb": [
            0.725,
            0.71,
            0.68
          ]
        }
      }
    },
    {
      "name": "BackWall",
      "doubleSided": true,
      "pbrMetallicRoughness": {
        "baseColorFactor": [
          0.725,
          0.71,
          0.68,
          1.0
        ],
        "metallicFactor": 0.0,
        "roughnessFactor": 1.0
      },
      "extras": {
        "pbrt": {
          "type": "diffuse",
          "reflectance_rgb": [
            0.725,
            0.71,
            0.68
          ]
        }
      }
    },
    {
      "name": "ShortBox",
      "doubleSided": true,
      "pbrMetallicRoughness": {
        "baseColorFactor": [
          0.725,
          0.71,
          0.68,
          1.0
        ],
        "metallicFactor": 0.0,
        "roughnessFactor": 1.0
      },
      "extras": {
        "pbrt": {
          "type": "diffuse",
          "reflectance_rgb": [
            0.725,
            0.71,
            0.68
          ]
        }
      }
    },
    {
      "name": "TallBox",
      "doubleSided": true,
      "pbrMetallicRoughness": {
        "baseColorFactor": [
          0.725,
          0.71,
          0.68,
          1.0
        ],
        "metallicFactor": 0.0,
        "roughnessFactor": 1.0
      },
      "extras": {
        "pbrt": {
          "type": "diffuse",
          "reflectance_rgb": [
            0.725,
            0.71,
            0.68
          ]
        }
      }
    },
    {
      "name": "Light",
      "doubleSided": false,
      "pbrMetallicRoughness": {
        "baseColorFactor": [
          0.0,
          0.0,
          0.0,
          1.0
        ],
        "metallicFactor": 0.0,
        "roughnessFactor": 1.0
      },
      "extras": {
        "pbrt": {
          "type": "diffuse",
          "reflectance_rgb": [
            0.0,
            0.0,
            0.0
          ],
          "area_light_radiance_rgb": [
            541126.75,
            381971.8,
            127323.94
          ],
          "area_light_twosided": false
        }
      },
      "emissiveFactor": [
        1.0,
        0.705882,
        0.235294
      ]
    },
    {
      "name": "Water",
      "doubleSided": true,
      "pbrMetallicRoughness": {
        "baseColorFactor": [
          1.0,
          1.0,
          1.0,
          0.35
        ],
        "metallicFactor": 0.0,
        "roughnessFactor": 0.0
      },
      "extras": {
        "pbrt": {
          "type": "dielectric",
          "reflectance_rgb": [
            1.0,
            1.0,
            1.0
          ],
          "eta": 1.8,
          "remaproughness": false
        }
      },
      "alphaMode": "BLEND"
    }
  ],
  "buffers": [
    {
      "uri": "cornell_caustic.bin",
      "byteLength": 2674182
    }
  ],
  "bufferViews": [
    {
      "buffer": 0,
      "byteOffset": 0,
      "byteLength": 48,
      "target": 34962
    },
    {
      "buffer": 0,
      "byteOffset": 48,
      "byteLength": 48,
      "target": 34962
    },
    {
      "buffer": 0,
      "byteOffset": 96,
      "byteLength": 32,
      "target": 34962
    },
    {
      "buffer": 0,
      "byteOffset": 128,
      "byteLength": 12,
      "target": 34963
    },
    {
      "buffer": 0,
      "byteOffset": 140,
      "byteLength": 48,
      "target": 34962
    },
    {
      "buffer": 0,
      "byteOffset": 188,
      "byteLength": 48,
      "target": 34962
    },
    {
      "buffer": 0,
      "byteOffset": 236,
      "byteLength": 32,
      "target": 34962
    },
    {
      "buffer": 0,
      "byteOffset": 268,
      "byteLength": 12,
      "target": 34963
    },
    {
      "buffer": 0,
      "byteOffset": 280,
      "byteLength": 48,
      "target": 34962
    },
    {
      "buffer": 0,
      "byteOffset": 328,
      "byteLength": 48,
      "target": 34962
    },
    {
      "buffer": 0,
      "byteOffset": 376,
      "byteLength": 32,
      "target": 34962
    },
    {
      "buffer": 0,
      "byteOffset": 408,
      "byteLength": 12,
      "target": 34963
    },
    {
      "buffer": 0,
      "byteOffset": 420,
      "byteLength": 48,
      "target": 34962
    },
    {
      "buffer": 0,
      "byteOffset": 468,
      "byteLength": 48,
      "target": 34962
    },
    {
      "buffer": 0,
      "byteOffset": 516,
      "byteLength": 32,
      "target": 34962
    },
    {
      "buffer": 0,
      "byteOffset": 548,
      "byteLength": 12,
      "target": 34963
    },
    {
      "buffer": 0,
      "byteOffset": 560,
      "byteLength": 48,
      "target": 34962
    },
    {
      "buffer": 0,
      "byteOffset": 608,
      "byteLength": 48,
      "target": 34962
    },
    {
      "buffer": 0,
      "byteOffset": 656,
      "byteLength": 32,
      "target": 34962
    },
    {
      "buffer": 0,
      "byteOffset": 688,
      "byteLength": 12,
      "target": 34963
    },
    {
      "buffer": 0,
      "byteOffset": 700,
      "byteLength": 288,
      "target": 34962
    },
    {
      "buffer": 0,
      "byteOffset": 988,
      "byteLength": 288,
      "target": 34962
    },
    {
      "buffer": 0,
      "byteOffset": 1276,
      "byteLength": 192,
      "target": 34962
    },
    {
      "buffer": 0,
      "byteOffset": 1468,
      "byteLength": 72,
      "target": 34963
    },
    {
      "buffer": 0,
      "byteOffset": 1540,
      "byteLength": 288,
      "target": 34962
    },
    {
      "buffer": 0,
      "byteOffset": 1828,
      "byteLength": 288,
      "target": 34962
    },
    {
      "buffer": 0,
      "byteOffset": 2116,
      "byteLength": 192,
      "target": 34962
    },
    {
      "buffer": 0,
      "byteOffset": 2308,
      "byteLength": 72,
      "target": 34963
    },
    {
      "buffer": 0,
      "byteOffset": 2380,
      "byteLength": 48,
      "target": 34962
    },
    {
      "buffer": 0,
      "byteOffset": 2428,
      "byteLength": 48,
      "target": 34962
    },
    {
      "buffer": 0,
      "byteOffset": 2476,
      "byteLength": 32,
      "target": 34962
    },
    {
      "buffer": 0,
      "byteOffset": 2508,
      "byteLength": 12,
      "target": 34963
    },
    {
      "buffer": 0,
      "byteOffset": 2520,
      "byteLength": 765216,
      "target": 34962
    },
    {
      "buffer": 0,
      "byteOffset": 767736,
      "byteLength": 765216,
      "target": 34962
    },
    {
      "buffer": 0,
      "byteOffset": 1532952,
      "byteLength": 510144,
      "target": 34962
    },
    {
      "buffer": 0,
      "byteOffset": 2043096,
      "byteLength": 617628,
      "target": 34963
    },
    {
      "buffer": 0,
      "byteOffset": 2660724,
      "byteLength": 6228,
      "target": 34962
    },
    {
      "buffer": 0,
      "byteOffset": 2666952,
      "byteLength": 4152,
      "target": 34962
    },
    {
      "buffer": 0,
      "byteOffset": 2671104,
      "byteLength": 3078,
      "target": 34963
    }
  ],
  "accessors": [
    {
      "bufferView": 0,
      "componentType": 5126,
      "count": 4,
      "type": "VEC3",
      "min": [
        -1.0,
        -1.74846e-07,
        -1.0
      ],
      "max": [
        1.0,
        1.74846e-07,
        1.0
      ]
    },
    {
      "bufferView": 1,
      "componentType": 5126,
      "count": 4,
      "type": "VEC3"
    },
    {
      "bufferView": 2,
      "componentType": 5126,
      "count": 4,
      "type": "VEC2"
    },
    {
      "bufferView": 3,
      "componentType": 5123,
      "count": 6,
      "type": "SCALAR"
    },
    {
      "bufferView": 4,
      "componentType": 5126,
      "count": 4,
      "type": "VEC3",
      "min": [
        -1.0,
        2.0,
        -1.0
      ],
      "max": [
        1.0,
        2.0,
        1.0
      ]
    },
    {
      "bufferView": 5,
      "componentType": 5126,
      "count": 4,
      "type": "VEC3"
    },
    {
      "bufferView": 6,
      "componentType": 5126,
      "count": 4,
      "type": "VEC2"
    },
    {
      "bufferView": 7,
      "componentType": 5123,
      "count": 6,
      "type": "SCALAR"
    },
    {
      "bufferView": 8,
      "componentType": 5126,
      "count": 4,
      "type": "VEC3",
      "min": [
        -1.0,
        0.0,
        -1.0
      ],
      "max": [
        1.0,
        2.0,
        -1.0
      ]
    },
    {
      "bufferView": 9,
      "componentType": 5126,
      "count": 4,
      "type": "VEC3"
    },
    {
      "bufferView": 10,
      "componentType": 5126,
      "count": 4,
      "type": "VEC2"
    },
    {
      "bufferView": 11,
      "componentType": 5123,
      "count": 6,
      "type": "SCALAR"
    },
    {
      "bufferView": 12,
      "componentType": 5126,
      "count": 4,
      "type": "VEC3",
      "min": [
        1.0,
        0.0,
        -1.0
      ],
      "max": [
        1.0,
        2.0,
        1.0
      ]
    },
    {
      "bufferView": 13,
      "componentType": 5126,
      "count": 4,
      "type": "VEC3"
    },
    {
      "bufferView": 14,
      "componentType": 5126,
      "count": 4,
      "type": "VEC2"
    },
    {
      "bufferView": 15,
      "componentType": 5123,
      "count": 6,
      "type": "SCALAR"
    },
    {
      "bufferView": 16,
      "componentType": 5126,
      "count": 4,
      "type": "VEC3",
      "min": [
        -1.0,
        0.0,
        -1.0
      ],
      "max": [
        -1.0,
        2.0,
        1.0
      ]
    },
    {
      "bufferView": 17,
      "componentType": 5126,
      "count": 4,
      "type": "VEC3"
    },
    {
      "bufferView": 18,
      "componentType": 5126,
      "count": 4,
      "type": "VEC2"
    },
    {
      "bufferView": 19,
      "componentType": 5123,
      "count": 6,
      "type": "SCALAR"
    },
    {
      "bufferView": 20,
      "componentType": 5126,
      "count": 24,
      "type": "VEC3",
      "min": [
        0.300971,
        -0.00923401,
        0.231173
      ],
      "max": [
        0.725429,
        0.313534,
        0.658247
      ]
    },
    {
      "bufferView": 21,
      "componentType": 5126,
      "count": 24,
      "type": "VEC3"
    },
    {
      "bufferView": 22,
      "componentType": 5126,
      "count": 24,
      "type": "VEC2"
    },
    {
      "bufferView": 23,
      "componentType": 5123,
      "count": 36,
      "type": "SCALAR"
    },
    {
      "bufferView": 24,
      "componentType": 5126,
      "count": 24,
      "type": "VEC3",
      "min": [
        -0.753612,
        -0.00653651,
        -0.515139
      ],
      "max": [
        -0.303198,
        0.678421,
        -0.0676907
      ]
    },
    {
      "bufferView": 25,
      "componentType": 5126,
      "count": 24,
      "type": "VEC3"
    },
    {
      "bufferView": 26,
      "componentType": 5126,
      "count": 24,
      "type": "VEC2"
    },
    {
      "bufferView": 27,
      "componentType": 5123,
      "count": 36,
      "type": "SCALAR"
    },
    {
      "bufferView": 28,
      "componentType": 5126,
      "count": 4,
      "type": "VEC3",
      "min": [
        -0.0075,
        1.98,
        -0.032
      ],
      "max": [
        -0.0025,
        1.98,
        -0.028
      ]
    },
    {
      "bufferView": 29,
      "componentType": 5126,
      "count": 4,
      "type": "VEC3"
    },
    {
      "bufferView": 30,
      "componentType": 5126,
      "count": 4,
      "type": "VEC2"
    },
    {
      "bufferView": 31,
      "componentType": 5123,
      "count": 6,
      "type": "SCALAR"
    },
    {
      "bufferView": 32,
      "componentType": 5126,
      "count": 63768,
      "type": "VEC3",
      "min": [
        -1.0,
        0.8837469816207886,
        -1.0
      ],
      "max": [
        1.0,
        1.1111979484558105,
        1.0
      ]
    },
    {
      "bufferView": 33,
      "componentType": 5126,
      "count": 63768,
      "type": "VEC3"
    },
    {
      "bufferView": 34,
      "componentType": 5126,
      "count": 63768,
      "type": "VEC2"
    },
    {
      "bufferView": 35,
      "componentType": 5123,
      "count": 308814,
      "type": "SCALAR"
    },
    {
      "bufferView": 36,
      "componentType": 5126,
      "count": 519,
      "type": "VEC3",
      "min": [
        -1.0,
        0.0,
        -0.651112973690033
      ],
      "max": [
        1.0,
        1.055299997329712,
        1.0
      ]
    },
    {
      "bufferView": 37,
      "componentType": 5126,
      "count": 519,
      "type": "VEC2"
    },
    {
      "bufferView": 38,
      "componentType": 5123,
      "count": 1539,
      "type": "SCALAR"
    }
  ],
  "extras": {
    "sourceFormat": "pbrt-v4",
    "sceneId": "cornell-caustic"
  },
  "cameras": [
    {
      "name": "Camera",
      "type": "perspective",
      "perspective": {
        "yfov": 0.34033920413889424,
        "znear": 0.01
      }
    }
  ]
}
